<svg xmlns="http://www.w3.org/2000/svg" viewBox="0 0 64 64" role="img" aria-label="NetWorkNetWorth whale">
  <rect width="64" height="64" rx="14" fill="#070912"/>
  <path d="M11 35c2-9 11-15 23-15 8 0 14 3 18 8 2-3 5-5 9-5-1 5-3 9-7 11 1 9-8 16-21 16-12 0-21-5-22-15Z" fill="#5b9dff"/>
  <path d="M12 34c-4-1-7-4-8-8 5 0 9 2 12 6" fill="#5b9dff"/>
  <circle cx="43" cy="29" r="2" fill="#070912"/>
  <path d="M30 20c0-4 2-7 5-9M35 20c1-4 4-6 8-7" fill="none" stroke="#34e0a1" stroke-width="3" stroke-linecap="round"/>
  <path d="M22 43c6 3 13 3 19 0" fill="none" stroke="#ffd24a" stroke-width="2.5" stroke-linecap="round"/>
</svg>
